<svg width="580" height="580" enable-background="new 0 0 580 580" version="1.1" viewBox="0 0 580 580" xmlns="http://www.w3.org/2000/svg">
    <g stroke="param(outline)" stroke-opacity="param(outline-opacity)" stroke-width="param(outline-width)" stroke-linecap="round" >
        <path d="m45.519 124.79h167.43"/>
        <path d="m129.23 79.321v45.425"/>
        <path d="m142.62 124.82 12.493-34.118"/>
        <path d="m159.74 124.75 14.247-19.448"/>
        <path d="m74.391 141.99h74.348"/>
        <path d="m115.81 124.8-12.493-34.118"/>
        <path d="m98.288 124.74-13.812-17.435"/>
        <path d="m179.67 244.83h167.43"/>
        <path d="m263.38 199.36v45.425"/>
        <path d="m276.77 244.87 12.493-34.118"/>
        <path d="m293.89 244.8 14.247-19.448"/>
        <path d="m218.9 263.77h85.499"/>
        <path d="m249.96 244.84-12.493-34.118"/>
        <path d="m232.44 244.78-13.812-17.435"/>
        <path d="m6.4558 371.68h167.43"/>
        <path d="m90.169 326.22v45.425"/>
        <path d="m103.56 371.72 12.493-34.118"/>
        <path d="m120.68 371.65 14.247-19.448"/>
        <path d="m65.161 392.36h74.348"/>
        <path d="m76.751 371.69-12.493-34.118"/>
        <path d="m59.225 371.64-13.812-17.435"/>
        <path d="m386.33 557.13h167.43"/>
        <path d="m470.05 511.66v45.425"/>
        <path d="m483.44 557.16 12.493-34.118"/>
        <path d="m500.56 557.09 14.247-19.448"/>
        <path d="m433.48 574.33h74.348"/>
        <path d="m456.63 557.14-12.493-34.118"/>
        <path d="m439.1 557.08-13.812-17.435"/>
        <path d="m376.02 165.4h167.43"/>
        <path d="m459.73 119.93v45.425"/>
        <path d="m473.12 165.44 12.493-34.118"/>
        <path d="m490.24 165.37 14.247-19.448"/>
        <path d="m435.58 182.6h55.244"/>
        <path d="m446.31 165.41-12.493-34.118"/>
        <path d="m428.78 165.35-13.812-17.435"/>
        <path d="m228.24 56.698h167.43"/>
        <path d="m311.95 11.232v45.425"/>
        <path d="m325.34 56.734 12.493-34.118"/>
        <path d="m342.46 56.664 14.247-19.448"/>
        <path d="m298.24 76.246h74.348"/>
        <path d="m298.53 56.707-12.493-34.118"/>
        <path d="m281.01 56.651-13.812-17.435"/>
        <path d="m281.17 427.67h167.43"/>
        <path d="m364.89 382.2v45.425"/>
        <path d="m378.28 427.71 12.493-34.118"/>
        <path d="m395.4 427.64 14.247-19.448"/>
        <path d="m303.39 445.4h74.348"/>
        <path d="m351.47 427.68-12.493-34.118"/>
        <path d="m333.94 427.62-13.812-17.435"/>
        <path d="m74.196 519.95h167.43"/>
        <path d="m157.91 474.49v45.425"/>
        <path d="m171.3 519.99 12.493-34.118"/>
        <path d="m188.42 519.92 14.247-19.448"/>
        <path d="m149.66 537.42h60.808"/>
        <path d="m144.49 519.96-12.493-34.118"/>
        <path d="m126.97 519.91-13.812-17.435"/>
        <path d="m412.53 307.91h167.43"/>
        <path d="m496.24 262.45v45.425"/>
        <path d="m509.63 307.95 12.493-34.118"/>
        <path d="m526.75 307.88 14.247-19.448"/>
        <path d="m461.68 325.11h74.348"/>
        <path d="m482.82 307.92-12.493-34.118"/>
        <path d="m465.3 307.86-13.812-17.435"/>
        <path d="m480.21 386.23h47.511"/>
        <path d="m290.3 334.97h54.558"/>
        <path d="m17.15 262.85h80.396"/>
        <path d="m62.566 195.95h79.929"/>
        <path d="m170.73 308.03h56.499"/>
        <path d="m268.57 142.07h70.217"/>
        <path d="m513.57 58.509h61.604"/>
        <path d="m1.6379 448.44h56.499"/>
        <path d="m306.2 503.54h69.691"/>
        <path d="m57.414 12.607h65.035"/>
        <path d="m544.53 448.44h39.426"/>
    </g>
</svg>
